# xmcd
#
# Track frame offsets: 
#        150
#        17233
#        36799
#        60986
#        82160
#        103592
#        109873
#        123612
#        145979
#        160987
#        179299
#        185392
#        206243
#        234921
#
# Disc length: 3317 seconds
#
# Revision: 3
# Processed by: cddbd v1.5.2PL0 Copyright (c) Steve Scherf et al.
# Submitted via: ExactAudioCopy v0.95b3
#
DISCID=c20cf30e
DTITLE=Billy's Band - Оторвемся по-питерски
DYEAR=2005
DGENRE=Blues
TTITLE0=Оторвемся по-питерски
TTITLE1=Я не вернусь
TTITLE2=В голове блюз
TTITLE3=Я послала любовь
TTITLE4=Так я падал
TTITLE5=Упражнение в...(инстр)
TTITLE6=32 рубля
TTITLE7=Где спит твое сердце
TTITLE8=Не веоь мужикам
TTITLE9=В этом городе
TTITLE10=Зимнее утро (инстр)
TTITLE11=Кладбище девичьих сердец
TTITLE12=торвемся по питерски (Джаз)
TTITLE13=Оторвемся по-питерски (клип)
EXTD=YEAR: 2005
EXTT0=
EXTT1=
EXTT2=
EXTT3=
EXTT4=
EXTT5=
EXTT6=
EXTT7=
EXTT8=
EXTT9=
EXTT10=
EXTT11=
EXTT12=
EXTT13=
PLAYORDER=
